<?xml version="1.0" standalone="no"?>
<!DOCTYPE svg PUBLIC "-//W3C//DTD SVG 20010904//EN"
 "http://www.w3.org/TR/2001/REC-SVG-20010904/DTD/svg10.dtd">
<svg version="1.0" xmlns="http://www.w3.org/2000/svg"
 width="152.000000pt" height="152.000000pt" viewBox="0 0 152.000000 152.000000"
 preserveAspectRatio="xMidYMid meet">
<metadata>
Created by potrace 1.11, written by Peter Selinger 2001-2013
</metadata>
<g transform="translate(0.000000,152.000000) scale(0.100000,-0.100000)"
fill="#000000" stroke="none">
<path d="M670 1493 c-61 -9 -160 -36 -160 -44 0 -5 -3 -8 -7 -7 -14 3 -63 -14
-63 -21 0 -4 -6 -8 -13 -8 -6 0 -32 -12 -57 -28 -161 -101 -280 -267 -326
-455 -22 -89 -24 -262 -4 -330 7 -25 14 -51 16 -58 5 -28 39 -102 47 -102 5 0
6 -4 2 -9 -3 -5 3 -17 12 -27 10 -10 17 -20 15 -23 -4 -8 87 -127 118 -154
107 -93 211 -150 334 -183 97 -25 244 -25 356 1 41 10 39 9 133 46 15 7 27 16
27 22 0 6 3 7 6 4 8 -8 64 24 64 35 0 4 7 8 15 8 8 0 15 5 15 10 0 6 5 10 11
10 16 0 39 26 31 35 -4 5 -2 5 4 2 6 -3 26 10 45 30 19 20 27 33 19 29 -8 -4
-3 2 12 14 28 22 91 117 91 138 0 6 4 12 8 12 6 0 17 22 24 50 1 3 7 18 13 33
7 15 14 40 17 55 2 15 9 49 14 76 12 67 6 208 -13 281 -18 69 -46 137 -61 147
-5 4 -6 8 -2 8 11 0 -25 60 -36 60 -4 0 -6 4 -2 9 3 5 -6 21 -20 35 -14 14
-25 28 -25 31 0 9 -79 86 -130 126 -64 51 -270 144 -270 123 0 -3 -9 0 -20 6
-20 11 -191 20 -240 13z"/>
</g>
</svg>
